<svg width="110" height="50" viewBox="0 0 110 50" fill="none" xmlns="http://www.w3.org/2000/svg">
<rect y="2" width="110" height="45" fill="#FF0000"/>
<path d="M5.73958 8.6H12.3336L15.2736 29.642H15.3576L18.2976 8.6H24.8916V38H20.5236V15.74H20.4396L17.0796 38H13.2156L9.85558 15.74H9.77158V38H5.73958V8.6ZM31.9092 8.6H38.1672L42.9552 38H38.3352L37.4952 32.162V32.246H32.2452L31.4052 38H27.1212L31.9092 8.6ZM36.9492 28.256L34.8912 13.724H34.8072L32.7912 28.256H36.9492ZM45.1966 8.6H52.0426C54.4226 8.6 56.1586 9.16 57.2506 10.28C58.3426 11.372 58.8886 13.066 58.8886 15.362V17.168C58.8886 20.22 57.8806 22.152 55.8646 22.964V23.048C56.9846 23.384 57.7686 24.07 58.2166 25.106C58.6926 26.142 58.9306 27.528 58.9306 29.264V34.43C58.9306 35.27 58.9586 35.956 59.0146 36.488C59.0706 36.992 59.2106 37.496 59.4346 38H54.7306C54.5626 37.524 54.4506 37.076 54.3946 36.656C54.3386 36.236 54.3106 35.48 54.3106 34.388V29.012C54.3106 27.668 54.0866 26.73 53.6386 26.198C53.2186 25.666 52.4766 25.4 51.4126 25.4H49.8166V38H45.1966V8.6ZM51.4966 21.2C52.4206 21.2 53.1066 20.962 53.5546 20.486C54.0306 20.01 54.2686 19.212 54.2686 18.092V15.824C54.2686 14.76 54.0726 13.99 53.6806 13.514C53.3166 13.038 52.7286 12.8 51.9166 12.8H49.8166V21.2H51.4966ZM60.754 8.6H65.416L68.44 31.406H68.524L71.548 8.6H75.79L71.338 38H65.206L60.754 8.6ZM78.0091 8.6H90.6091V12.8H82.6291V20.57H88.9711V24.77H82.6291V33.8H90.6091V38H78.0091V8.6ZM93.2669 8.6H97.8869V33.8H105.489V38H93.2669V8.6Z" fill="white"/>
<path d="M5.73958 8.6V7.6H4.73958V8.6H5.73958ZM12.3336 8.6L13.324 8.46162L13.2036 7.6H12.3336V8.6ZM15.2736 29.642L14.2832 29.7804L14.4036 30.642H15.2736V29.642ZM15.3576 29.642V30.642H16.2276L16.348 29.7804L15.3576 29.642ZM18.2976 8.6V7.6H17.4276L17.3072 8.46162L18.2976 8.6ZM24.8916 8.6H25.8916V7.6H24.8916V8.6ZM24.8916 38V39H25.8916V38H24.8916ZM20.5236 38H19.5236V39H20.5236V38ZM20.5236 15.74H21.5236V14.74H20.5236V15.74ZM20.4396 15.74V14.74H19.5792L19.4508 15.5907L20.4396 15.74ZM17.0796 38V39H17.94L18.0684 38.1493L17.0796 38ZM13.2156 38L12.2268 38.1493L12.3552 39H13.2156V38ZM9.85558 15.74L10.8444 15.5907L10.716 14.74H9.85558V15.74ZM9.77158 15.74V14.74H8.77158V15.74H9.77158ZM9.77158 38V39H10.7716V38H9.77158ZM5.73958 38H4.73958V39H5.73958V38ZM5.73958 9.6H12.3336V7.6H5.73958V9.6ZM11.3432 8.73837L14.2832 29.7804L16.264 29.5036L13.324 8.46162L11.3432 8.73837ZM15.2736 30.642H15.3576V28.642H15.2736V30.642ZM16.348 29.7804L19.288 8.73837L17.3072 8.46162L14.3672 29.5036L16.348 29.7804ZM18.2976 9.6H24.8916V7.6H18.2976V9.6ZM23.8916 8.6V38H25.8916V8.6H23.8916ZM24.8916 37H20.5236V39H24.8916V37ZM21.5236 38V15.74H19.5236V38H21.5236ZM20.5236 14.74H20.4396V16.74H20.5236V14.74ZM19.4508 15.5907L16.0908 37.8507L18.0684 38.1493L21.4284 15.8893L19.4508 15.5907ZM17.0796 37H13.2156V39H17.0796V37ZM14.2044 37.8507L10.8444 15.5907L8.86678 15.8893L12.2268 38.1493L14.2044 37.8507ZM9.85558 14.74H9.77158V16.74H9.85558V14.74ZM8.77158 15.74V38H10.7716V15.74H8.77158ZM9.77158 37H5.73958V39H9.77158V37ZM6.73958 38V8.6H4.73958V38H6.73958ZM31.9092 8.6V7.6H31.0589L30.9222 8.43926L31.9092 8.6ZM38.1672 8.6L39.1542 8.43926L39.0175 7.6H38.1672V8.6ZM42.9552 38V39H44.1312L43.9422 37.8393L42.9552 38ZM38.3352 38L37.3454 38.1424L37.4688 39H38.3352V38ZM37.4952 32.162L38.485 32.0196L36.4952 32.162H37.4952ZM37.4952 32.246V33.246H38.4952V32.246H37.4952ZM32.2452 32.246V31.246H31.3806L31.2557 32.1015L32.2452 32.246ZM31.4052 38V39H32.2698L32.3947 38.1445L31.4052 38ZM27.1212 38L26.1342 37.8393L25.9452 39H27.1212V38ZM36.9492 28.256V29.256H38.1008L37.9393 28.1158L36.9492 28.256ZM34.8912 13.724L35.8813 13.5838L35.7595 12.724H34.8912V13.724ZM34.8072 13.724V12.724H33.9363L33.8167 13.5866L34.8072 13.724ZM32.7912 28.256L31.8007 28.1186L31.6429 29.256H32.7912V28.256ZM31.9092 9.6H38.1672V7.6H31.9092V9.6ZM37.1802 8.76074L41.9682 38.1607L43.9422 37.8393L39.1542 8.43926L37.1802 8.76074ZM42.9552 37H38.3352V39H42.9552V37ZM39.325 37.8576L38.485 32.0196L36.5054 32.3044L37.3454 38.1424L39.325 37.8576ZM36.4952 32.162V32.246H38.4952V32.162H36.4952ZM37.4952 31.246H32.2452V33.246H37.4952V31.246ZM31.2557 32.1015L30.4157 37.8555L32.3947 38.1445L33.2347 32.3905L31.2557 32.1015ZM31.4052 37H27.1212V39H31.4052V37ZM28.1082 38.1607L32.8962 8.76074L30.9222 8.43926L26.1342 37.8393L28.1082 38.1607ZM37.9393 28.1158L35.8813 13.5838L33.9011 13.8642L35.9591 28.3962L37.9393 28.1158ZM34.8912 12.724H34.8072V14.724H34.8912V12.724ZM33.8167 13.5866L31.8007 28.1186L33.7817 28.3934L35.7977 13.8614L33.8167 13.5866ZM32.7912 29.256H36.9492V27.256H32.7912V29.256ZM45.1966 8.6V7.6H44.1966V8.6H45.1966ZM57.2506 10.28L56.5346 10.9782L56.5435 10.9871L57.2506 10.28ZM55.8646 22.964L55.491 22.0364L54.8646 22.2887V22.964H55.8646ZM55.8646 23.048H54.8646V23.792L55.5773 24.0058L55.8646 23.048ZM58.2166 25.106L57.2988 25.5029L57.3032 25.5133L57.3079 25.5235L58.2166 25.106ZM59.0146 36.488L58.0201 36.5927L58.0207 36.5984L59.0146 36.488ZM59.4346 38V39H60.9734L60.3484 37.5939L59.4346 38ZM54.7306 38L53.7876 38.3328L54.0231 39H54.7306V38ZM53.6386 26.198L52.8537 26.8176L52.8635 26.83L52.8737 26.8421L53.6386 26.198ZM49.8166 25.4V24.4H48.8166V25.4H49.8166ZM49.8166 38V39H50.8166V38H49.8166ZM45.1966 38H44.1966V39H45.1966V38ZM53.5546 20.486L52.8475 19.7789L52.8368 19.7896L52.8264 19.8006L53.5546 20.486ZM53.6806 13.514L52.8863 14.1214L52.8972 14.1358L52.9087 14.1497L53.6806 13.514ZM49.8166 12.8V11.8H48.8166V12.8H49.8166ZM49.8166 21.2H48.8166V22.2H49.8166V21.2ZM45.1966 9.6H52.0426V7.6H45.1966V9.6ZM52.0426 9.6C54.2917 9.6 55.7095 10.1319 56.5346 10.9781L57.9666 9.5819C56.6077 8.18814 54.5535 7.6 52.0426 7.6V9.6ZM56.5435 10.9871C57.3736 11.8172 57.8886 13.2032 57.8886 15.362H59.8886C59.8886 12.9288 59.3117 10.9268 57.9577 9.57289L56.5435 10.9871ZM57.8886 15.362V17.168H59.8886V15.362H57.8886ZM57.8886 17.168C57.8886 18.5937 57.6517 19.6658 57.246 20.4434C56.8519 21.1989 56.2774 21.7197 55.491 22.0364L56.2382 23.8916C57.4678 23.3963 58.4054 22.5451 59.0192 21.3686C59.6215 20.2142 59.8886 18.7943 59.8886 17.168H57.8886ZM54.8646 22.964V23.048H56.8646V22.964H54.8646ZM55.5773 24.0058C56.4263 24.2605 56.9726 24.7488 57.2988 25.5029L59.1345 24.7091C58.5646 23.3912 57.5429 22.5075 56.152 22.0902L55.5773 24.0058ZM57.3079 25.5235C57.7006 26.3782 57.9306 27.6039 57.9306 29.264H59.9306C59.9306 27.4521 59.6846 25.9058 59.1253 24.6885L57.3079 25.5235ZM57.9306 29.264V34.43H59.9306V29.264H57.9306ZM57.9306 34.43C57.9306 35.2877 57.959 36.0122 58.0201 36.5927L60.0091 36.3833C59.9582 35.8998 59.9306 35.2523 59.9306 34.43H57.9306ZM58.0207 36.5984C58.089 37.2131 58.2587 37.8165 58.5208 38.4061L60.3484 37.5939C60.1625 37.1755 60.0522 36.7709 60.0085 36.3776L58.0207 36.5984ZM59.4346 37H54.7306V39H59.4346V37ZM55.6736 37.6672C55.5243 37.2443 55.4312 36.864 55.3858 36.5238L53.4034 36.7882C53.47 37.288 53.6009 37.8037 53.7876 38.3328L55.6736 37.6672ZM55.3858 36.5238C55.3397 36.1779 55.3106 35.4835 55.3106 34.388H53.3106C53.3106 35.4765 53.3375 36.2941 53.4034 36.7882L55.3858 36.5238ZM55.3106 34.388V29.012H53.3106V34.388H55.3106ZM55.3106 29.012C55.3106 27.6218 55.092 26.3715 54.4035 25.5539L52.8737 26.8421C53.0812 27.0885 53.3106 27.7142 53.3106 29.012H55.3106ZM54.4235 25.5784C53.7266 24.6956 52.6069 24.4 51.4126 24.4V26.4C52.3463 26.4 52.7106 26.6364 52.8537 26.8176L54.4235 25.5784ZM51.4126 24.4H49.8166V26.4H51.4126V24.4ZM48.8166 25.4V38H50.8166V25.4H48.8166ZM49.8166 37H45.1966V39H49.8166V37ZM46.1966 38V8.6H44.1966V38H46.1966ZM51.4966 22.2C52.5799 22.2 53.5786 21.9196 54.2828 21.1714L52.8264 19.8006C52.6346 20.0044 52.2613 20.2 51.4966 20.2V22.2ZM54.2617 21.1931C55.017 20.4378 55.2686 19.3106 55.2686 18.092H53.2686C53.2686 19.1134 53.0442 19.5822 52.8475 19.7789L54.2617 21.1931ZM55.2686 18.092V15.824H53.2686V18.092H55.2686ZM55.2686 15.824C55.2686 14.6806 55.0662 13.6235 54.4525 12.8783L52.9087 14.1497C53.079 14.3565 53.2686 14.8394 53.2686 15.824H55.2686ZM54.475 12.9065C53.8597 12.102 52.9213 11.8 51.9166 11.8V13.8C52.536 13.8 52.7735 13.974 52.8863 14.1214L54.475 12.9065ZM51.9166 11.8H49.8166V13.8H51.9166V11.8ZM48.8166 12.8V21.2H50.8166V12.8H48.8166ZM49.8166 22.2H51.4966V20.2H49.8166V22.2ZM60.754 8.6V7.6H59.5912L59.7653 8.74972L60.754 8.6ZM65.416 8.6L66.4073 8.46855L66.2922 7.6H65.416V8.6ZM68.44 31.406L67.4487 31.5374L67.5638 32.406H68.44V31.406ZM68.524 31.406V32.406H69.4002L69.5153 31.5374L68.524 31.406ZM71.548 8.6V7.6H70.6718L70.5567 8.46855L71.548 8.6ZM75.79 8.6L76.7787 8.74972L76.9528 7.6H75.79V8.6ZM71.338 38V39H72.198L72.3267 38.1497L71.338 38ZM65.206 38L64.2173 38.1497L64.346 39H65.206V38ZM60.754 9.6H65.416V7.6H60.754V9.6ZM64.4247 8.73144L67.4487 31.5374L69.4313 31.2746L66.4073 8.46855L64.4247 8.73144ZM68.44 32.406H68.524V30.406H68.44V32.406ZM69.5153 31.5374L72.5393 8.73144L70.5567 8.46855L67.5327 31.2746L69.5153 31.5374ZM71.548 9.6H75.79V7.6H71.548V9.6ZM74.8013 8.45028L70.3493 37.8503L72.3267 38.1497L76.7787 8.74972L74.8013 8.45028ZM71.338 37H65.206V39H71.338V37ZM66.1947 37.8503L61.7427 8.45028L59.7653 8.74972L64.2173 38.1497L66.1947 37.8503ZM78.0091 8.6V7.6H77.0091V8.6H78.0091ZM90.6091 8.6H91.6091V7.6H90.6091V8.6ZM90.6091 12.8V13.8H91.6091V12.8H90.6091ZM82.6291 12.8V11.8H81.6291V12.8H82.6291ZM82.6291 20.57H81.6291V21.57H82.6291V20.57ZM88.9711 20.57H89.9711V19.57H88.9711V20.57ZM88.9711 24.77V25.77H89.9711V24.77H88.9711ZM82.6291 24.77V23.77H81.6291V24.77H82.6291ZM82.6291 33.8H81.6291V34.8H82.6291V33.8ZM90.6091 33.8H91.6091V32.8H90.6091V33.8ZM90.6091 38V39H91.6091V38H90.6091ZM78.0091 38H77.0091V39H78.0091V38ZM78.0091 9.6H90.6091V7.6H78.0091V9.6ZM89.6091 8.6V12.8H91.6091V8.6H89.6091ZM90.6091 11.8H82.6291V13.8H90.6091V11.8ZM81.6291 12.8V20.57H83.6291V12.8H81.6291ZM82.6291 21.57H88.9711V19.57H82.6291V21.57ZM87.9711 20.57V24.77H89.9711V20.57H87.9711ZM88.9711 23.77H82.6291V25.77H88.9711V23.77ZM81.6291 24.77V33.8H83.6291V24.77H81.6291ZM82.6291 34.8H90.6091V32.8H82.6291V34.8ZM89.6091 33.8V38H91.6091V33.8H89.6091ZM90.6091 37H78.0091V39H90.6091V37ZM79.0091 38V8.6H77.0091V38H79.0091ZM93.2669 8.6V7.6H92.2669V8.6H93.2669ZM97.8869 8.6H98.8869V7.6H97.8869V8.6ZM97.8869 33.8H96.8869V34.8H97.8869V33.8ZM105.489 33.8H106.489V32.8H105.489V33.8ZM105.489 38V39H106.489V38H105.489ZM93.2669 38H92.2669V39H93.2669V38ZM93.2669 9.6H97.8869V7.6H93.2669V9.6ZM96.8869 8.6V33.8H98.8869V8.6H96.8869ZM97.8869 34.8H105.489V32.8H97.8869V34.8ZM104.489 33.8V38H106.489V33.8H104.489ZM105.489 37H93.2669V39H105.489V37ZM94.2669 38V8.6H92.2669V38H94.2669Z" fill="white"/>
</svg>
